<?xml version="1.0" encoding="UTF-8"?>
<!DOCTYPE svg PUBLIC "-//W3C//DTD SVG 1.1//EN" "http://www.w3.org/Graphics/SVG/1.1/DTD/svg11.dtd">
<!-- Creator: CorelDRAW -->
<svg xmlns="http://www.w3.org/2000/svg" xml:space="preserve" width="2550px" height="3300px" style="shape-rendering:geometricPrecision; text-rendering:geometricPrecision; image-rendering:optimizeQuality; fill-rule:evenodd; clip-rule:evenodd"
viewBox="0 0 2550 3300"
 xmlns:xlink="http://www.w3.org/1999/xlink"
 version="1.1">
 <defs>
  <style type="text/css">
   <![CDATA[
    .fil3 {fill:none;fill-rule:nonzero}
    .fil1 {fill:white}
    .fil0 {fill:#00C251;fill-rule:nonzero}
    .fil2 {fill:white;fill-rule:nonzero}
   ]]>
  </style>
 </defs>
 <g id="Layer_x0020_1">
  <metadata id="CorelCorpID_0Corel-Layer"/>
  <g id="_1965437616304">
   <path id="_702247376" class="fil0" d="M434.415 1892.02l26.0091 14.8488 -0.333071 70.9843 -25.676 -14.6209 0 -71.211 0 -0.0011811zm36.848 14.8642l102.983 -59.589 0.121654 0 0.689764 -0.399213 0 0.219685 163.31 -94.4976 0.116929 0 6.70984 -3.87283 0 71.485 -139.859 80.7425 0.0307087 0.0543307 -131.73 76.0193 -2.71181 1.97598 0.337795 -72.1394 0.0011811 0.0011811zm-223.131 -50.6457l-62.2441 -35.9386 0 -316.428 62.2441 35.8571 0 244.804 0 71.7071 0 -0.0011811zm-56.824 -361.746l134.441 -77.6173 -0.0307087 -0.0507874 16.0276 -9.25276 61.8472 35.9894 -46.7539 26.9965 -0.121654 0 -103.369 59.6764 -62.0421 -35.7413 0.0011811 0zm212.405 -122.702l61.8283 -35.6965 139.827 80.7307 -0.0307087 0.0507874 134.434 77.6161 -61.8614 35.8453 -103.544 -59.778 -0.121654 0 -170.533 -98.7673 0.0011811 -0.0011811zm341.483 132.104l0 173.613 -62.2417 35.8346 0 -173.38 62.2417 -36.0685 0 0.0011811z"/>
   <path id="_702246944" class="fil1" d="M461.099 1762.79l-88.7055 -50.6421 0 -100.828 -62.2417 -35.8571 0 244.885 0 71.7012 19.1835 11.0764 -0.147638 0.252756 0.119291 0 34.0831 19.4114 9.00354 5.19803 0 -0.0708661 0 -71.3031 0 -73.1634 88.3724 50.3244 0.333071 -70.9854 0 0.0011811zm-83.2854 -160.848l87.6331 -50.5972 87.802 51.2398 61.9276 -35.8878 -149.662 -87.0945 -149.863 86.5276 62.1626 35.8098 0 0.0023622zm180.829 10.0618l0 101.3 -86.7059 49.6335 -0.337795 71.8949 25.0642 -14.0421 0 -0.354331 78.3945 -44.8748 0 -0.0968504 45.8244 -26.3823 0 -173.146 -62.2406 36.0685 0.0011811 0z"/>
  </g>
  <path class="fil2" d="M976.643 1590.67c5.92913,0 11.0965,-0.76063 15.5043,-2.24173 4.40669,-1.48346 8.09173,-3.60472 11.0173,-6.36969 2.92441,-2.76496 5.08701,-6.1311 6.52913,-10.0961 1.44213,-3.96614 2.1626,-8.37402 2.1626,-13.2614 0,-4.64764 -0.719291,-8.85472 -2.1626,-12.6201 -1.44213,-3.76654 -3.60472,-6.97205 -6.49016,-9.61535 -2.88425,-2.64449 -6.52913,-4.6878 -10.937,-6.08976 -4.40669,-1.40197 -9.61417,-2.08465 -15.6236,-2.08465l-24.1583 0 -0.0614173 62.3776 24.2197 0.0011811zm0 -87.3756c11.6185,0 21.6732,1.36299 30.1677,4.08543 8.49213,2.72362 15.5031,6.5315 21.0331,11.4177 5.52874,4.88858 9.65433,10.7374 12.339,17.5488 2.68346,6.81142 4.00512,14.263 4.00512,22.3547 0,8.41299 -1.40315,16.1043 -4.20709,23.1154 -2.80394,7.01102 -7.00984,13.0606 -12.6201,18.1087 -5.60787,5.04803 -12.6201,8.97402 -21.0732,11.778 -8.45315,2.80512 -18.3484,4.20709 -29.6457,4.20709l-24.1583 0 0 61.1764 -32.3315 0 0 -173.792 56.4898 0 0.0011811 0zm857.369 26.5606l-52.4008 0 0 147.23 -32.3315 0 0 -147.23 -52.4008 0 0 -26.5606 137.134 0 0 26.5606 -0.0011811 0zm-683.921 56.1283c6.08976,0 11.4177,-0.76063 15.9449,-2.28307 4.52717,-1.52244 8.25236,-3.64606 11.178,-6.33071 2.92441,-2.68346 5.08819,-5.84882 6.52913,-9.53386 1.44213,-3.68622 2.16378,-7.73268 2.16378,-12.1406 0,-8.8122 -2.88425,-15.5835 -8.69409,-20.3114 -5.80984,-4.72677 -14.7035,-7.09134 -26.6421,-7.09134l-20.6728 0 0 57.6909 20.1921 0 0.0011811 0zm83.1697 91.1031l-29.2039 0c-5.52992,0 -9.5374,-2.16378 -12.0201,-6.49016l-36.5374 -55.6465c-1.36181,-2.08465 -2.84291,-3.56575 -4.48583,-4.44803 -1.64291,-0.881102 -4.08543,-1.32165 -7.29213,-1.32165l-13.8224 0 0 67.9075 -32.3303 0 0 -173.792 53.0031 0c11.7791,0 21.9154,1.20118 30.3685,3.64606 8.45433,2.44252 15.3839,5.8878 20.7921,10.2957 5.40945,4.40669 9.37441,9.65551 11.9386,15.7854 2.56417,6.12874 3.84567,12.9 3.84567,20.2713 0,5.84882 -0.842126,11.3787 -2.56417,16.5862 -1.72087,5.20866 -4.20591,9.93543 -7.45157,14.1827 -3.24567,4.24724 -7.25079,7.97244 -12.0189,11.1768 -4.76811,3.20551 -10.2165,5.72953 -16.3063,7.57323 2.08465,1.20118 4.00748,2.60197 5.76969,4.24724 1.76339,1.64173 3.36614,3.60472 4.80709,5.84764l43.5083 64.1823 0 -0.00354331zm210.826 -86.8972c0,12.7406 -2.08228,24.5197 -6.29055,35.3752 -4.20591,10.8579 -10.1752,20.2724 -17.8677,28.2047 -7.69252,7.93346 -16.9465,14.1024 -27.763,18.5492 -10.8165,4.44685 -22.8366,6.69094 -36.0579,6.69094 -13.1409,0 -25.1185,-2.24409 -35.935,-6.69094 -10.8165,-4.44685 -20.0717,-10.6169 -27.8031,-18.5492 -7.73268,-7.9311 -13.7409,-17.3469 -17.9882,-28.2047 -4.24724,-10.8555 -6.36969,-22.6358 -6.36969,-35.3752 0,-12.7406 2.12362,-24.5587 6.36969,-35.4142 4.24724,-10.8579 10.2555,-20.2323 17.9882,-28.1646 7.7315,-7.9311 16.9866,-14.1413 27.8031,-18.5894 10.8165,-4.44685 22.7953,-6.64961 35.935,-6.64961 8.81457,0 17.1071,1.00157 24.8787,3.04488 7.77165,2.04213 14.9043,4.92756 21.3945,8.65276 6.48898,3.7252 12.339,8.25354 17.5075,13.5815 5.16732,5.32795 9.53386,11.2972 13.1409,17.8677 3.60472,6.57047 6.36969,13.702 8.25236,21.3933 1.88386,7.69252 2.80394,15.7854 2.80394,24.2787l0.0011811 -0.0011811zm-33.052 0c0,-9.53386 -1.2815,-18.1075 -3.84567,-25.6807 -2.56417,-7.57205 -6.21024,-13.9807 -10.937,-19.2697 -4.72677,-5.28898 -10.4551,-9.33543 -17.2264,-12.1394 -6.77008,-2.80394 -14.4224,-4.20591 -22.9169,-4.20591 -8.49213,0 -16.1055,1.40197 -22.8756,4.20591 -6.77008,2.80394 -12.5386,6.85039 -17.3055,12.1394 -4.76811,5.28898 -8.45315,11.6976 -11.0173,19.2697 -2.56417,7.57323 -3.84567,16.1469 -3.84567,25.6807 0,9.53504 1.2815,18.0697 3.84567,25.6406 2.56417,7.57205 6.24921,13.9807 11.0173,19.2283 4.76811,5.24764 10.5354,9.29646 17.3055,12.1004 6.77008,2.80394 14.3846,4.20591 22.8756,4.20591 8.49449,0 16.1469,-1.40197 22.9169,-4.20591 6.77008,-2.80394 12.4996,-6.85157 17.2264,-12.1004 4.72677,-5.24764 8.37283,-11.6575 10.937,-19.2283 2.56417,-7.57205 3.84567,-16.1055 3.84567,-25.6406zm244.481 0c0,12.7406 -2.12362,24.4394 -6.36969,35.0953 -4.24724,10.6571 -10.2142,19.8307 -17.9079,27.5232 -7.69016,7.69252 -16.9465,13.6618 -27.763,17.9079 -10.8165,4.24724 -22.8354,6.36969 -36.0579,6.36969l-66.2232 0 0 -173.792 66.2232 0c13.2224,0 25.2402,2.12362 36.0579,6.40866 10.8165,4.2874 20.0717,10.2567 27.763,17.9079 7.6937,7.65354 13.6618,16.8272 17.9079,27.4843 4.24724,10.6559 6.36969,22.3535 6.36969,35.0941l0 0.0011811zm-33.1724 0c0,-9.53386 -1.24252,-18.1075 -3.76654,-25.6807 -2.52283,-7.57205 -6.16772,-13.9807 -10.937,-19.2283 -4.76575,-5.24764 -10.5354,-9.25512 -17.3055,-12.0591 -6.77008,-2.80512 -14.4224,-4.20709 -22.9169,-4.20709l-33.7713 0 0 122.352 33.7713 0c8.49449,0 16.1469,-1.40197 22.9169,-4.20591 6.77008,-2.80394 12.5398,-6.85157 17.3055,-12.1004 4.76929,-5.24764 8.41535,-11.6575 10.937,-19.2283 2.52402,-7.57205 3.76654,-16.1055 3.76654,-25.6406l0 -0.0011811zm295.578 -61.1752l0 48.1949 60.815 0 0 24.8811 -60.815 0 0 49.1563 77.1602 0 0 25.8413 -109.612 0 0 -173.792 109.612 0 0 25.7197 -77.1602 0 0 -0.0011811zm250.007 107.087c1.76339,0 3.32598,0.682677 4.6878,2.04331l12.7406 13.8213c-7.05236,8.73425 -15.7051,15.4252 -26.0008,20.0717 -10.2957,4.64764 -22.6748,6.97087 -37.0984,6.97087 -12.9,0 -24.4783,-2.20512 -34.774,-6.60945 -10.2969,-4.40787 -19.1102,-10.5366 -26.4012,-18.3898 -7.29213,-7.85197 -12.8598,-17.2264 -16.7457,-28.1244 -3.88701,-10.8969 -5.84882,-22.7953 -5.84882,-35.6965 0,-13.0606 2.08228,-25.0382 6.24921,-35.8949 4.16575,-10.8579 10.0547,-20.1921 17.6268,-28.0441 7.57205,-7.85315 16.5862,-13.9819 27.0827,-18.3496 10.4976,-4.36535 22.1161,-6.52913 34.8555,-6.52913 12.6591,0 23.9173,2.08228 33.7323,6.24921 9.81496,4.16693 18.1488,9.61535 25.0382,16.3453l-10.8165 15.0248c-0.640157,0.960236 -1.44213,1.80236 -2.44252,2.52402 -1.00276,0.721654 -2.40472,1.08071 -4.16693,1.08071 -1.20354,0 -2.4437,-0.360236 -3.7252,-1.04055 -1.28268,-0.682677 -2.68465,-1.52244 -4.20591,-2.5252 -1.52362,-1.00157 -3.28583,-2.08228 -5.29016,-3.28465 -2.00315,-1.20118 -4.32638,-2.32323 -6.96969,-3.32598 -2.64449,-1.00039 -5.68937,-1.84134 -9.17362,-2.52283 -3.48661,-0.682677 -7.53307,-1.00157 -12.1004,-1.00157 -7.77165,0 -14.863,1.36181 -21.313,4.12559 -6.45,2.76378 -12.0189,6.77008 -16.6677,12.0189 -4.64764,5.24764 -8.25236,11.6587 -10.8154,19.2307 -2.56417,7.57205 -3.84803,16.2248 -3.84803,25.9193 0,9.77598 1.40315,18.4701 4.16811,26.0811 2.76378,7.6122 6.48898,14.0232 11.2157,19.2307 4.72795,5.20748 10.2969,9.17598 16.7067,11.9386 6.41102,2.76496 13.3016,4.16693 20.6728,4.16693 4.40669,0 8.41181,-0.240945 11.9799,-0.721654 3.56457,-0.480709 6.85039,-1.24252 9.85512,-2.28425 3.00472,-1.04055 5.84882,-2.40354 8.53228,-4.04528 2.68465,-1.64291 5.32913,-3.64606 7.97362,-6.05079 0.800787,-0.719291 1.64173,-1.32047 2.52283,-1.7622 0.882283,-0.441732 1.80354,-0.641339 2.76496,-0.641339l-0.0011811 0.0011811zm214.793 -132.808l0 173.792 -32.4508 0 0 -75.9591 -81.6071 0 0 75.9591 -32.452 0 0 -173.792 32.452 0 0 74.7579 81.6071 0 0 -74.7579 32.4508 0z"/>
  <path class="fil2" d="M934.056 1783.1l29.3244 0c0.317717,0 0.595276,-0.127559 0.806693,-0.361417 0.212598,-0.212598 0.340157,-0.531496 0.340157,-0.914173l0 -11.7295c0,-0.382677 -0.127559,-0.701575 -0.361417,-0.935433 -0.212598,-0.212598 -0.531496,-0.340157 -0.914173,-0.340157l-29.1969 0 0 -21.6744 35.3161 0c0.382677,0 0.701575,-0.127559 0.914173,-0.361417 0.233858,-0.212598 0.361417,-0.531496 0.361417,-0.914173l0 -11.9858c0,-0.382677 -0.127559,-0.700394 -0.361417,-0.934252 -0.212598,-0.21378 -0.531496,-0.340157 -0.914173,-0.340157l-49.3429 0c-0.317717,0 -0.595276,0.126378 -0.806693,0.340157 -0.212598,0.233858 -0.340157,0.551575 -0.340157,0.934252l-0.126378 85.9346c0,0.382677 0.126378,0.701575 0.361417,0.914173 0.212598,0.233858 0.530315,0.361417 0.912992,0.361417l50.6185 0c0.382677,0 0.657874,-0.127559 0.849213,-0.340157 0.191339,-0.212598 0.297638,-0.487795 0.297638,-0.806693l0 -12.1122c0,-0.382677 -0.127559,-0.701575 -0.340157,-0.914173 -0.212598,-0.212598 -0.488976,-0.297638 -0.806693,-0.233858l-36.5917 0 0 -23.5866zm178.409 -50.4909c-0.382677,0 -0.700394,0.126378 -0.912992,0.340157 -0.235039,0.233858 -0.361417,0.551575 -0.361417,0.934252l0 62.0929 -39.7795 -62.4756c-0.170079,-0.253937 -0.361417,-0.466535 -0.595276,-0.636614 -0.212598,-0.170079 -0.574016,-0.253937 -1.06299,-0.253937 -1.42323,0 -3.01772,0 -4.75984,0 -1.76339,0 -3.50551,0 -5.2689,0 -1.74213,0 -3.33661,0 -4.75984,0 -0.382677,0 -0.701575,0.126378 -0.914173,0.340157 -0.233858,0.233858 -0.361417,0.551575 -0.361417,0.934252l0 85.9346c0,0.382677 0.127559,0.701575 0.361417,0.914173 0.212598,0.233858 0.531496,0.361417 0.914173,0.361417l12.75 0c0.382677,0 0.700394,-0.127559 0.912992,-0.361417 0.235039,-0.212598 0.361417,-0.531496 0.361417,-0.914173l0 -62.2193 40.0346 62.7295c0.127559,0.191339 0.318898,0.382677 0.552756,0.531496 0.256299,0.148819 0.531496,0.233858 0.850394,0.233858l14.7898 0c0.382677,0 0.701575,-0.127559 0.935433,-0.361417 0.212598,-0.212598 0.340157,-0.531496 0.340157,-0.914173l0 -85.9346c0,-0.382677 -0.127559,-0.700394 -0.340157,-0.934252 -0.233858,-0.21378 -0.552756,-0.340157 -0.935433,-0.340157l-12.75 0 -0.0011811 -0.0011811zm164.896 53.6764c-1.33819,6.84331 -4.16339,12.0071 -8.45669,15.5126 -4.29213,3.50669 -10.0299,5.25 -17.1709,5.27126 -4.24961,-0.0212598 -8.11654,-0.744094 -11.602,-2.1685 -3.46417,-1.44449 -6.46063,-3.48425 -8.96811,-6.14055 -2.50748,-2.67756 -4.44094,-5.84291 -5.80039,-9.54094 -1.35945,-3.69685 -2.04094,-7.8189 -2.06102,-12.3661 0.0212598,-4.54843 0.744094,-8.66929 2.16732,-12.3685 1.44567,-3.69685 3.48425,-6.86339 6.14055,-9.54094 2.67756,-2.65512 5.84409,-4.69488 9.54094,-6.14055 3.69685,-1.42323 7.82008,-2.14606 12.3685,-2.16732 2.55,0.0212598 4.97244,0.275197 7.22362,0.786614 2.27362,0.510236 4.35709,1.16811 6.24803,1.99843 1.9122,0.827953 3.59173,1.69843 5.05866,2.65512 1.46575,0.935433 2.69882,1.84961 3.65433,2.72126 0.126378,0.126378 0.253937,0.212598 0.403937,0.275197 0.126378,0.0637795 0.296457,0.10748 0.487795,0.10748 0.256299,0 0.510236,-0.127559 0.765354,-0.382677l7.9063 -9.69094c0.191339,-0.253937 0.317717,-0.531496 0.338976,-0.827953 0.0212598,-0.297638 -0.0838583,-0.574016 -0.338976,-0.830315 -2.61378,-2.44252 -5.50394,-4.54606 -8.65039,-6.33189 -3.14409,-1.80591 -6.62953,-3.18661 -10.4539,-4.16339 -3.80433,-0.979134 -8.03268,-1.46693 -12.6437,-1.48819 -6.84331,0.0212598 -13.0476,1.10551 -18.6142,3.27283 -5.59016,2.14606 -10.3713,5.22756 -14.3657,9.24331 -4.01575,3.99567 -7.09724,8.77677 -9.26457,14.3232 -2.14606,5.54646 -3.25157,11.7295 -3.27283,18.5516 0.0212598,6.84331 1.06299,13.0476 3.14409,18.5929 2.06102,5.56772 5.01614,10.3488 8.88307,14.3232 3.84567,3.99567 8.43661,7.07598 13.7906,9.22205 5.35512,2.14606 11.3256,3.23031 17.9126,3.25157 6.90591,0.0212598 12.9213,-1.06299 18.0425,-3.20906 5.09882,-2.16732 9.34843,-5.29016 12.7063,-9.39213 3.37913,-4.07953 5.92913,-9.05197 7.62874,-14.8748 1.69961,-5.82165 2.59134,-12.3874 2.67756,-19.6972 0.0637795,-0.405118 -0.0425197,-0.744094 -0.297638,-1.06299 -0.253937,-0.297638 -0.657874,-0.445276 -1.23189,-0.466535l-37.2307 0c-0.382677,0 -0.700394,0.126378 -0.934252,0.338976 -0.21378,0.235039 -0.340157,0.552756 -0.340157,0.935433l0 10.2012c0,0.382677 0.126378,0.679134 0.340157,0.870472 0.233858,0.212598 0.551575,0.340157 0.934252,0.403937l23.3327 0 0.0011811 -0.00708661zm112.368 -52.402c0,-0.382677 -0.127559,-0.700394 -0.340157,-0.934252 -0.212598,-0.21378 -0.488976,-0.340157 -0.806693,-0.340157l-12.8787 0c-0.382677,0 -0.700394,0.126378 -0.912992,0.340157 -0.235039,0.233858 -0.361417,0.551575 -0.361417,0.934252l0.126378 86.0622c0,0.318898 0.10748,0.595276 0.297638,0.806693 0.191339,0.212598 0.466535,0.340157 0.849213,0.340157l12.8787 0c0.382677,0 0.657874,-0.127559 0.849213,-0.340157 0.191339,-0.212598 0.297638,-0.487795 0.297638,-0.806693l0 -86.0622 0.0011811 0zm145.26 -1.27441c-0.382677,0 -0.700394,0.126378 -0.912992,0.340157 -0.235039,0.233858 -0.361417,0.551575 -0.361417,0.934252l0 62.0929 -39.7795 -62.4756c-0.170079,-0.253937 -0.361417,-0.466535 -0.595276,-0.636614 -0.212598,-0.170079 -0.574016,-0.253937 -1.06299,-0.253937 -1.42323,0 -3.01772,0 -4.75984,0 -1.76339,0 -3.50551,0 -5.2689,0 -1.74213,0 -3.33661,0 -4.75984,0 -0.382677,0 -0.701575,0.126378 -0.914173,0.340157 -0.233858,0.233858 -0.361417,0.551575 -0.361417,0.934252l0 85.9346c0,0.382677 0.127559,0.701575 0.361417,0.914173 0.212598,0.233858 0.531496,0.361417 0.914173,0.361417l12.75 0c0.382677,0 0.700394,-0.127559 0.912992,-0.361417 0.235039,-0.212598 0.361417,-0.531496 0.361417,-0.914173l0 -62.2193 40.0346 62.7295c0.127559,0.191339 0.318898,0.382677 0.552756,0.531496 0.256299,0.148819 0.531496,0.233858 0.850394,0.233858l14.7898 0c0.382677,0 0.701575,-0.127559 0.935433,-0.361417 0.212598,-0.212598 0.340157,-0.531496 0.340157,-0.914173l0 -85.9346c0,-0.382677 -0.127559,-0.700394 -0.340157,-0.934252 -0.233858,-0.21378 -0.552756,-0.340157 -0.935433,-0.340157l-12.75 0 -0.0011811 -0.0011811zm115.554 50.4909l29.3244 0c0.317717,0 0.595276,-0.127559 0.806693,-0.361417 0.212598,-0.212598 0.340157,-0.531496 0.340157,-0.914173l0 -11.7295c0,-0.382677 -0.127559,-0.701575 -0.361417,-0.935433 -0.212598,-0.212598 -0.531496,-0.340157 -0.914173,-0.340157l-29.1969 0 0 -21.6744 35.3161 0c0.382677,0 0.701575,-0.127559 0.914173,-0.361417 0.233858,-0.212598 0.361417,-0.531496 0.361417,-0.914173l0 -11.9858c0,-0.382677 -0.127559,-0.700394 -0.361417,-0.934252 -0.212598,-0.21378 -0.531496,-0.340157 -0.914173,-0.340157l-49.3429 0c-0.317717,0 -0.595276,0.126378 -0.806693,0.340157 -0.212598,0.233858 -0.340157,0.551575 -0.340157,0.934252l-0.126378 85.9346c0,0.382677 0.126378,0.701575 0.361417,0.914173 0.212598,0.233858 0.530315,0.361417 0.912992,0.361417l50.6185 0c0.382677,0 0.657874,-0.127559 0.849213,-0.340157 0.191339,-0.212598 0.297638,-0.487795 0.297638,-0.806693l0 -12.1122c0,-0.382677 -0.127559,-0.701575 -0.340157,-0.914173 -0.212598,-0.212598 -0.488976,-0.297638 -0.806693,-0.233858l-36.5917 0 0 -23.5866zm134.805 0l29.3244 0c0.317717,0 0.595276,-0.127559 0.806693,-0.361417 0.212598,-0.212598 0.340157,-0.531496 0.340157,-0.914173l0 -11.7295c0,-0.382677 -0.127559,-0.701575 -0.361417,-0.935433 -0.212598,-0.212598 -0.531496,-0.340157 -0.914173,-0.340157l-29.1969 0 0 -21.6744 35.3161 0c0.382677,0 0.701575,-0.127559 0.914173,-0.361417 0.233858,-0.212598 0.361417,-0.531496 0.361417,-0.914173l0 -11.9858c0,-0.382677 -0.127559,-0.700394 -0.361417,-0.934252 -0.212598,-0.21378 -0.531496,-0.340157 -0.914173,-0.340157l-49.3429 0c-0.317717,0 -0.595276,0.126378 -0.806693,0.340157 -0.212598,0.233858 -0.340157,0.551575 -0.340157,0.934252l-0.126378 85.9346c0,0.382677 0.126378,0.701575 0.361417,0.914173 0.212598,0.233858 0.530315,0.361417 0.912992,0.361417l50.6185 0c0.382677,0 0.657874,-0.127559 0.849213,-0.340157 0.191339,-0.212598 0.297638,-0.487795 0.297638,-0.806693l0 -12.1122c0,-0.382677 -0.127559,-0.701575 -0.340157,-0.914173 -0.212598,-0.212598 -0.488976,-0.297638 -0.806693,-0.233858l-36.5917 0 0 -23.5866zm145.77 3.69685l19.6335 33.6602c0.127559,0.191339 0.318898,0.338976 0.552756,0.466535 0.212598,0.10748 0.468898,0.170079 0.722835,0.170079l14.4071 0c0.574016,0 0.935433,-0.127559 1.06299,-0.382677 0.148819,-0.253937 0.0838583,-0.636614 -0.170079,-1.14803l-21.1654 -34.0429c4.18701,-1.04055 7.73622,-2.76142 10.689,-5.16378 2.93386,-2.37874 5.2063,-5.33386 6.75827,-8.86063 1.57205,-3.50551 2.37874,-7.45866 2.44252,-11.8571 -0.0425197,-3.99567 -0.700394,-7.65 -1.99724,-10.9429 -1.29685,-3.29291 -3.16654,-6.14055 -5.60906,-8.54291 -2.46496,-2.4 -5.42008,-4.24961 -8.92559,-5.56772 -3.48425,-1.29685 -7.45866,-1.95472 -11.8996,-1.97598 -5.22874,0 -10.4551,0 -15.7039,0 -5.22874,0 -10.4976,0 -15.789,0 -0.317717,0 -0.595276,0.126378 -0.806693,0.340157 -0.212598,0.233858 -0.340157,0.551575 -0.340157,0.934252l0 85.9346c0,0.382677 0.127559,0.701575 0.361417,0.914173 0.212598,0.233858 0.531496,0.361417 0.914173,0.361417l12.75 0c0.382677,0 0.700394,-0.127559 0.912992,-0.361417 0.235039,-0.212598 0.361417,-0.531496 0.361417,-0.914173l0 -33.0213c1.12677,0 2.5937,0 4.35709,0 1.78465,0 3.95315,0 6.48189,0l-0.0011811 0zm6.75709 -39.7807c1.63701,0 3.23031,0.253937 4.75984,0.744094 1.52953,0.510236 2.89016,1.29685 4.12323,2.3374 1.21063,1.04173 2.18858,2.35866 2.89016,3.95315 0.721654,1.61457 1.08307,3.52677 1.10433,5.71654 -0.0212598,2.18858 -0.382677,4.07953 -1.10433,5.65157 -0.744094,1.59449 -1.72087,2.89016 -2.93386,3.88819 -1.23189,1.02047 -2.6126,1.76457 -4.14331,2.23228 -1.50945,0.488976 -3.0815,0.722835 -4.69724,0.722835l-17.5949 0 0 -25.2449 17.5949 0 0.0011811 -0.0011811zm124.48 -13.1327c0,-0.382677 -0.127559,-0.700394 -0.340157,-0.934252 -0.212598,-0.21378 -0.488976,-0.340157 -0.806693,-0.340157l-12.8787 0c-0.382677,0 -0.700394,0.126378 -0.912992,0.340157 -0.235039,0.233858 -0.361417,0.551575 -0.361417,0.934252l0.126378 86.0622c0,0.318898 0.10748,0.595276 0.297638,0.806693 0.191339,0.212598 0.466535,0.340157 0.849213,0.340157l12.8787 0c0.382677,0 0.657874,-0.127559 0.849213,-0.340157 0.191339,-0.212598 0.297638,-0.487795 0.297638,-0.806693l0 -86.0622 0.0011811 0zm145.26 -1.27441c-0.382677,0 -0.700394,0.126378 -0.912992,0.340157 -0.235039,0.233858 -0.361417,0.551575 -0.361417,0.934252l0 62.0929 -39.7795 -62.4756c-0.170079,-0.253937 -0.361417,-0.466535 -0.595276,-0.636614 -0.212598,-0.170079 -0.574016,-0.253937 -1.06299,-0.253937 -1.42323,0 -3.01772,0 -4.75984,0 -1.76339,0 -3.50551,0 -5.2689,0 -1.74213,0 -3.33661,0 -4.75984,0 -0.382677,0 -0.701575,0.126378 -0.914173,0.340157 -0.233858,0.233858 -0.361417,0.551575 -0.361417,0.934252l0 85.9346c0,0.382677 0.127559,0.701575 0.361417,0.914173 0.212598,0.233858 0.531496,0.361417 0.914173,0.361417l12.75 0c0.382677,0 0.700394,-0.127559 0.912992,-0.361417 0.235039,-0.212598 0.361417,-0.531496 0.361417,-0.914173l0 -62.2193 40.0346 62.7295c0.127559,0.191339 0.318898,0.382677 0.552756,0.531496 0.256299,0.148819 0.531496,0.233858 0.850394,0.233858l14.7898 0c0.382677,0 0.701575,-0.127559 0.935433,-0.361417 0.212598,-0.212598 0.340157,-0.531496 0.340157,-0.914173l0 -85.9346c0,-0.382677 -0.127559,-0.700394 -0.340157,-0.934252 -0.233858,-0.21378 -0.552756,-0.340157 -0.935433,-0.340157l-12.75 0 -0.0011811 -0.0011811zm164.895 53.6764c-1.33819,6.84331 -4.16339,12.0071 -8.45669,15.5126 -4.29213,3.50669 -10.0299,5.25 -17.1709,5.27126 -4.24961,-0.0212598 -8.11654,-0.744094 -11.602,-2.1685 -3.46417,-1.44449 -6.46063,-3.48425 -8.96811,-6.14055 -2.50748,-2.67756 -4.44094,-5.84291 -5.80039,-9.54094 -1.35945,-3.69685 -2.04094,-7.8189 -2.06102,-12.3661 0.0212598,-4.54843 0.744094,-8.66929 2.16732,-12.3685 1.44567,-3.69685 3.48425,-6.86339 6.14055,-9.54094 2.67756,-2.65512 5.84409,-4.69488 9.54094,-6.14055 3.69685,-1.42323 7.82008,-2.14606 12.3685,-2.16732 2.55,0.0212598 4.97244,0.275197 7.22362,0.786614 2.27362,0.510236 4.35709,1.16811 6.24803,1.99843 1.9122,0.827953 3.59173,1.69843 5.05866,2.65512 1.46575,0.935433 2.69882,1.84961 3.65433,2.72126 0.126378,0.126378 0.253937,0.212598 0.403937,0.275197 0.126378,0.0637795 0.296457,0.10748 0.487795,0.10748 0.256299,0 0.510236,-0.127559 0.765354,-0.382677l7.9063 -9.69094c0.191339,-0.253937 0.317717,-0.531496 0.338976,-0.827953 0.0212598,-0.297638 -0.0838583,-0.574016 -0.338976,-0.830315 -2.61378,-2.44252 -5.50394,-4.54606 -8.65039,-6.33189 -3.14409,-1.80591 -6.62953,-3.18661 -10.4539,-4.16339 -3.80433,-0.979134 -8.03268,-1.46693 -12.6437,-1.48819 -6.84331,0.0212598 -13.0476,1.10551 -18.6142,3.27283 -5.59016,2.14606 -10.3713,5.22756 -14.3657,9.24331 -4.01575,3.99567 -7.09724,8.77677 -9.26457,14.3232 -2.14606,5.54646 -3.25157,11.7295 -3.27283,18.5516 0.0212598,6.84331 1.06299,13.0476 3.14409,18.5929 2.06102,5.56772 5.01614,10.3488 8.88307,14.3232 3.84567,3.99567 8.43661,7.07598 13.7906,9.22205 5.35512,2.14606 11.3256,3.23031 17.9126,3.25157 6.90591,0.0212598 12.9213,-1.06299 18.0425,-3.20906 5.09882,-2.16732 9.34843,-5.29016 12.7063,-9.39213 3.37913,-4.07953 5.92913,-9.05197 7.62874,-14.8748 1.69961,-5.82165 2.59134,-12.3874 2.67756,-19.6972 0.0637795,-0.405118 -0.0425197,-0.744094 -0.297638,-1.06299 -0.253937,-0.297638 -0.657874,-0.445276 -1.23189,-0.466535l-37.2307 0c-0.382677,0 -0.700394,0.126378 -0.934252,0.338976 -0.21378,0.235039 -0.340157,0.552756 -0.340157,0.935433l0 10.2012c0,0.382677 0.126378,0.679134 0.340157,0.870472 0.233858,0.212598 0.551575,0.340157 0.934252,0.403937l23.3327 0 0.0011811 -0.00708661z"/>
  <polygon class="fil3" points="-35.0008,1110.94 2603.13,1110.94 2603.13,2210.15 -35.0008,2210.15 "/>
 </g>
</svg>
