<?xml version="1.0" encoding="UTF-8"?>
<!DOCTYPE svg PUBLIC "-//W3C//DTD SVG 1.1//EN" "http://www.w3.org/Graphics/SVG/1.1/DTD/svg11.dtd">
<!-- Creator: CorelDRAW -->
<svg xmlns="http://www.w3.org/2000/svg" xml:space="preserve" style="shape-rendering:geometricPrecision; text-rendering:geometricPrecision; image-rendering:optimizeQuality; fill-rule:evenodd; clip-rule:evenodd"
viewBox="0 0 2000 799.999"
 xmlns:xlink="http://www.w3.org/1999/xlink"
 version="1.1">
 <defs>
  <style type="text/css">
   <![CDATA[
    .fil3 {fill:none;fill-rule:nonzero}
    .fil1 {fill:white}
    .fil0 {fill:#00C251;fill-rule:nonzero}
    .fil2 {fill:white;fill-rule:nonzero}
   ]]>
  </style>
 </defs>
 <g id="Layer_x0020_1">
  <metadata id="CorelCorpID_0Corel-Layer"/>
  <g id="_1965437616304">
   <path id="_702247376" class="fil0" d="M340.718 589.822l20.3988 11.6457 -0.261024 55.6737 -20.1378 -11.4673 0 -55.852zm28.9004 11.6575l80.7709 -46.7363 0.0956694 0 0.540945 -0.312992 0 0.172441 128.086 -74.1154 0.0921261 0 5.263 -3.0378 0 56.067 -109.693 63.3272 0.0236221 0.0425197 -103.317 59.6233 -2.12717 1.54961 0.264567 -56.5796zm-175.005 -39.7217l-48.8185 -28.187 0 -248.179 48.8185 28.1233 0 192.003 0 56.2406zm-44.5678 -283.722l105.444 -60.8764 -0.0236221 -0.0401575 12.5705 -7.2567 48.5079 28.2272 -36.6697 21.1736 -0.0956694 0 -81.0733 46.8048 -48.6603 -28.0323zm166.592 -96.2375l48.4926 -27.9969 109.668 63.3178 -0.0236221 0.0401575 105.439 60.8752 -48.5185 28.1138 -81.2103 -46.8851 -0.0956694 0 -133.752 -77.465zm267.829 103.611l0 136.167 -48.8174 28.1055 0 -135.984 48.8174 -28.2886z"/>
   <path id="_702246944" class="fil1" d="M361.646 488.459l-69.5729 -39.7193 0 -79.0808 -48.8174 -28.1233 0 192.067 0 56.2359 15.0461 8.68701 -0.115748 0.198425 0.0933072 0 26.7319 15.2244 7.06182 4.07717 0 -0.0555119 0 -55.9241 0 -57.3827 69.3119 39.4701 0.261024 -55.6748zm-65.3221 -126.156l68.7319 -39.6839 68.8642 40.1882 48.5705 -28.1469 -117.382 -68.3091 -117.54 67.865 48.7548 28.0866zm141.827 7.89213l0 79.4505 -68.0044 38.928 -0.264567 56.3882 19.6583 -11.0138 0 -0.277559 61.4859 -35.1957 0 -0.0755906 35.941 -20.6917 0 -135.801 -48.8162 28.2886z"/>
  </g>
  <path class="fil2" d="M765.994 353.464c4.65,0 8.70355,-0.596457 12.1606,-1.75866 3.45591,-1.16339 6.34607,-2.82756 8.64095,-4.99607 2.2937,-2.16851 3.98977,-4.80827 5.12126,-7.91812 1.1315,-3.11103 1.69606,-6.56812 1.69606,-10.4008 0,-3.64488 -0.564567,-6.94489 -1.69606,-9.89765 -1.1315,-2.95394 -2.82756,-5.46851 -5.09056,-7.54134 -2.26181,-2.07402 -5.12126,-3.67677 -8.57835,-4.77638 -3.45591,-1.09961 -7.54016,-1.63465 -12.2539,-1.63465l-18.9473 0 18.9473 48.9237zm0 -68.53c9.11221,0 16.9984,1.0689 23.661,3.20433 6.66024,2.13662 12.1595,5.12244 16.4965,8.95513 4.33583,3.83386 7.57205,8.42127 9.67796,13.7634 2.10473,5.34213 3.14173,11.1862 3.14173,17.5335 0,6.59882 -1.10079,12.6307 -3.3,18.1299 -2.19921,5.49922 -5.49804,10.2437 -9.89765,14.2028 -4.39843,3.95906 -9.89765,7.03819 -16.5284,9.23741 -6.62953,2.2004 -14.3906,3.3 -23.2512,3.3l-18.9473 0 0 47.9811 -25.3583 0 0 -136.308 44.3055 0zm672.447 20.8323l-41.0989 0 0 115.475 -25.3583 0 0 -115.475 -41.0989 0 0 -20.8323 107.556 0 0 20.8323zm-536.409 44.0221c4.77638,0 8.95513,-0.596457 12.5055,-1.79055 3.5504,-1.1941 6.47245,-2.85945 8.76733,-4.96536 2.2937,-2.10473 3.99095,-4.58741 5.12126,-7.47756 1.1315,-2.89134 1.69725,-6.06497 1.69725,-9.52205 0,-6.91182 -2.26181,-12.2221 -6.81851,-15.9307 -4.5567,-3.70748 -11.5323,-5.56182 -20.8961,-5.56182l-16.2142 0 0 45.2481 15.8374 0zm65.2312 71.4532l-22.9051 0c-4.33701,0 -7.47993,-1.69725 -9.42757,-5.09056l-28.6571 -43.6441c-1.06772,-1.63465 -2.22992,-2.79685 -3.51851,-3.48898 -1.28858,-0.690945 -3.20433,-1.03701 -5.7189,-1.03701l-10.8413 0 0 53.2607 -25.3571 0 0 -136.308 41.5713 0c9.23859,0 17.1886,0.94252 23.8181,2.85945 6.63071,1.91575 12.0662,4.61811 16.3075,8.0752 4.24252,3.45591 7.35237,7.57323 9.36379,12.3803 2.01142,4.80709 3.01654,10.1173 3.01654,15.8988 0,4.58741 -0.660237,8.92442 -2.01142,13.0087 -1.35,4.08544 -3.29882,7.79292 -5.8441,11.1236 -2.54528,3.33071 -5.68701,6.25276 -9.42639,8.76615 -3.73937,2.51457 -8.0126,4.4941 -12.789,5.93977 1.63465,0.94252 3.14292,2.04095 4.52481,3.33071 1.38307,1.2874 2.63977,2.82756 3.77008,4.58622l34.1244 50.3386zm165.354 -68.1544c0,9.99213 -1.63347,19.2307 -4.93347,27.7453 -3.29882,8.51575 -7.98071,15.9 -14.0138,22.1209 -6.03308,6.22205 -13.291,11.061 -21.7748,14.5488 -8.48386,3.4878 -17.9114,5.24764 -28.2803,5.24764 -10.3063,0 -19.7008,-1.75984 -28.1847,-5.24764 -8.48386,-3.4878 -15.7429,-8.32678 -21.8067,-14.5488 -6.06497,-6.22087 -10.7776,-13.6051 -14.1083,-22.1209 -3.33071,-8.51457 -4.99607,-17.7532 -4.99607,-27.7453 0,-9.99213 1.66536,-19.2614 4.99607,-27.776 3.33071,-8.51575 8.04331,-15.8681 14.1083,-22.0902 6.06378,-6.22087 13.3228,-11.0917 21.8067,-14.5795 8.48386,-3.4878 17.8784,-5.21575 28.1847,-5.21575 6.913,0 13.4173,0.785434 19.513,2.38819 6.09567,1.60158 11.6894,3.86457 16.7799,6.78662 5.08937,2.92205 9.67796,6.47363 13.7315,10.6524 4.05237,4.17874 7.47756,8.86064 10.3063,14.0138 2.82756,5.15315 4.99607,10.7469 6.47245,16.7788 1.47756,6.03308 2.19921,12.3803 2.19921,19.0417zm-25.9229 0c0,-7.47756 -1.00512,-14.2016 -3.01654,-20.1414 -2.01142,-5.93859 -4.87087,-10.9654 -8.57835,-15.1134 -3.70748,-4.14803 -8.2004,-7.32166 -13.5106,-9.52087 -5.31024,-2.19921 -11.3114,-3.29882 -17.974,-3.29882 -6.66024,0 -12.6319,1.09961 -17.9421,3.29882 -5.31024,2.19921 -9.83387,5.37284 -13.5732,9.52087 -3.73937,4.14803 -6.62953,9.17481 -8.64095,15.1134 -2.01142,5.93977 -3.01654,12.6638 -3.01654,20.1414 0,7.47875 1.00512,14.1721 3.01654,20.1106 2.01142,5.93859 4.90158,10.9654 8.64095,15.0815 3.73937,4.11614 8.263,7.29095 13.5732,9.49016 5.31024,2.19921 11.2819,3.29882 17.9421,3.29882 6.6626,0 12.6638,-1.09961 17.974,-3.29882 5.31024,-2.19921 9.80316,-5.37402 13.5106,-9.49016 3.70748,-4.11614 6.56693,-9.14292 8.57835,-15.0815 2.01142,-5.93859 3.01654,-12.6319 3.01654,-20.1106zm191.749 0c0,9.99213 -1.66536,19.1681 -4.99607,27.5256 -3.33071,8.35867 -8.01142,15.5539 -14.0457,21.587 -6.03189,6.03308 -13.291,10.715 -21.7748,14.0457 -8.48386,3.33071 -17.9103,4.99607 -28.2803,4.99607l-51.9402 0 0 -136.308 51.9402 0c10.3701,0 19.7965,1.66536 28.2803,5.02678 8.48386,3.3626 15.7429,8.04449 21.7748,14.0457 6.03426,6.00237 10.715,13.1976 14.0457,21.5563 3.33071,8.35749 4.99607,17.5323 4.99607,27.5244zm-26.0173 0c0,-7.47756 -0.97441,-14.2016 -2.95394,-20.1414 -1.97835,-5.93859 -4.8378,-10.9654 -8.57835,-15.0815 -3.73819,-4.11614 -8.263,-7.25906 -13.5732,-9.45828 -5.31024,-2.2004 -11.3114,-3.3 -17.974,-3.3l-26.4874 0 0 95.9623 26.4874 0c6.6626,0 12.6638,-1.09961 17.974,-3.29882 5.31024,-2.19921 9.83505,-5.37402 13.5732,-9.49016 3.74055,-4.11614 6.60001,-9.14292 8.57835,-15.0815 1.97953,-5.93859 2.95394,-12.6319 2.95394,-20.1106zm231.826 -47.9811l0 37.8 47.6977 0 0 19.5142 -47.6977 0 0 38.5536 60.5174 0 0 20.2677 -85.9701 0 0 -136.308 85.9701 0 0 20.1721 -60.5174 0zm196.084 83.9906c1.38307,0 2.60906,0.53504 3.67677,1.60276l9.99213 10.8402c-5.53111,6.8504 -12.3177,12.098 -20.3929,15.7429 -8.0752,3.64488 -17.7839,5.46733 -29.0965,5.46733 -10.1173,0 -19.1988,-1.72914 -27.274,-5.18386 -8.07638,-3.45709 -14.9882,-8.26418 -20.7071,-14.4236 -5.7189,-6.15827 -10.0866,-13.5106 -13.1339,-22.0583 -3.04843,-8.54646 -4.58741,-17.8784 -4.58741,-27.9969 0,-10.2437 1.63347,-19.6382 4.90158,-28.1528 3.26693,-8.51575 7.88623,-15.8374 13.8248,-21.9957 5.93859,-6.15945 13.0087,-10.9665 21.241,-14.3917 8.23347,-3.42402 17.3457,-5.12126 27.3378,-5.12126 9.92835,0 18.7583,1.63347 26.4567,4.90158 7.69843,3.26811 14.2347,7.54134 19.6382,12.8197l-8.48386 11.7839c-0.501969,0.753544 -1.1315,1.41378 -1.91575,1.97953 -0.786615,0.565748 -1.88622,0.848032 -3.26811,0.848032 -0.943702,0 -1.91693,-0.282284 -2.92205,-0.816142 -1.0063,-0.53504 -2.10591,-1.1941 -3.29882,-1.98071 -1.19528,-0.785434 -2.57717,-1.63347 -4.14922,-2.57599 -1.57087,-0.94252 -3.39331,-1.82244 -5.46615,-2.60906 -2.07402,-0.784253 -4.46221,-1.44449 -7.19528,-1.97835 -2.73425,-0.53504 -5.90788,-0.785434 -9.49016,-0.785434 -6.09567,0 -11.6575,1.06772 -16.7162,3.23622 -5.05867,2.16732 -9.42639,5.31024 -13.0725,9.42639 -3.64488,4.11614 -6.47245,9.1441 -8.48268,15.0827 -2.01142,5.93859 -3.01772,12.7252 -3.01772,20.3291 0,7.66772 1.10079,14.4862 3.26929,20.4555 2.16732,5.97048 5.08937,10.9984 8.79686,15.0827 3.70866,4.08426 8.07638,7.19646 13.1032,9.36379 5.02796,2.16851 10.4327,3.26811 16.2142,3.26811 3.45591,0 6.59764,-0.188977 9.39568,-0.565748 2.79567,-0.376772 5.37284,-0.97441 7.72914,-1.79173 2.3563,-0.816142 4.58741,-1.88504 6.69213,-3.17244 2.10591,-1.28858 4.17992,-2.85945 6.25394,-4.74567 0.628347,-0.564567 1.2874,-1.03583 1.97835,-1.38189 0.692127,-0.346063 1.41496,-0.50315 2.16851,-0.50315zm168.465 -104.163l0 136.308 -25.4516 0 0 -59.576 -64.0052 0 0 59.576 -25.4528 0 0 -136.308 25.4528 0 0 58.6335 64.0052 0 0 -58.6335 25.4516 0z"/>
  <path class="fil2" d="M732.593 504.391l22.9996 0c0.249213,0 0.466536,-0.100394 0.633071,-0.283465 0.166536,-0.166536 0.266929,-0.416929 0.266929,-0.71693l0 -9.19961c0,-0.3 -0.100394,-0.550394 -0.283465,-0.733465 -0.166536,-0.166536 -0.416929,-0.266929 -0.71693,-0.266929l-22.8992 0 0 -16.9996 27.6992 0c0.3,0 0.550394,-0.100394 0.71693,-0.283465 0.183071,-0.166536 0.283465,-0.416929 0.283465,-0.71693l0 -9.4004c0,-0.3 -0.100394,-0.549213 -0.283465,-0.732284 -0.166536,-0.167717 -0.416929,-0.266929 -0.71693,-0.266929l-38.7 0c-0.249213,0 -0.466536,0.0992127 -0.633071,0.266929 -0.166536,0.183071 -0.266929,0.432284 -0.266929,0.732284l-0.0992127 67.3997c0,0.3 0.0992127,0.550394 0.283465,0.71693 0.166536,0.183071 0.415748,0.283465 0.715749,0.283465l39.7004 0c0.3,0 0.516142,-0.100394 0.666142,-0.266929 0.15,-0.166536 0.233858,-0.382677 0.233858,-0.633071l0 -9.49961c0,-0.3 -0.100394,-0.550394 -0.266929,-0.71693 -0.166536,-0.166536 -0.383859,-0.233858 -0.633071,-0.183071l-28.6996 0 0 -18.4996zm139.929 -39.6c-0.3,0 -0.549213,0.0992127 -0.715749,0.266929 -0.184252,0.183071 -0.283465,0.432284 -0.283465,0.732284l0 48.7004 -31.2 -49.0004c-0.133465,-0.199606 -0.283465,-0.366142 -0.466536,-0.499607 -0.166536,-0.133465 -0.45,-0.199606 -0.833859,-0.199606 -1.11614,0 -2.36693,0 -3.73347,0 -1.38307,0 -2.74961,0 -4.13268,0 -1.36654,0 -2.61732,0 -3.73347,0 -0.3,0 -0.550394,0.0992127 -0.71693,0.266929 -0.183071,0.183071 -0.283465,0.432284 -0.283465,0.732284l0 67.3997c0,0.3 0.100394,0.550394 0.283465,0.71693 0.166536,0.183071 0.416929,0.283465 0.71693,0.283465l10.0004 0c0.3,0 0.549213,-0.100394 0.715749,-0.283465 0.184252,-0.166536 0.283465,-0.416929 0.283465,-0.71693l0 -48.7996 31.3996 49.2c0.100394,0.15 0.250394,0.3 0.433465,0.416929 0.200788,0.116929 0.416929,0.183071 0.667323,0.183071l11.5996 0c0.3,0 0.550394,-0.100394 0.733465,-0.283465 0.166536,-0.166536 0.266929,-0.416929 0.266929,-0.71693l0 -67.3997c0,-0.3 -0.100394,-0.549213 -0.266929,-0.732284 -0.183071,-0.167717 -0.433465,-0.266929 -0.733465,-0.266929l-10.0004 0zm129.33 42.0992c-1.05,5.36693 -3.26575,9.41694 -6.63308,12.1665 -3.36614,2.75079 -7.86615,4.11733 -13.4669,4.13386 -3.33307,-0.0165354 -6.36615,-0.583465 -9.09922,-1.70079 -2.71654,-1.13268 -5.06693,-2.73307 -7.03347,-4.81654 -1.96654,-2.1 -3.48307,-4.58268 -4.54961,-7.48347 -1.06654,-2.89961 -1.60039,-6.13229 -1.61693,-9.69922 0.0165354,-3.56693 0.583465,-6.79961 1.69961,-9.7004 1.13386,-2.89961 2.73307,-5.38347 4.81654,-7.48347 2.1,-2.08229 4.58386,-3.68268 7.48347,-4.81654 2.89961,-1.11614 6.13347,-1.68307 9.7004,-1.69961 1.99961,0.0165354 3.9,0.216142 5.66575,0.616536 1.78347,0.400394 3.41693,0.916536 4.9004,1.56732 1.5,0.649607 2.81693,1.33228 3.96733,2.08229 1.14921,0.733465 2.11654,1.45039 2.86654,2.13425 0.0992127,0.0992127 0.199606,0.166536 0.316536,0.216142 0.0992127,0.0496063 0.232677,0.0838583 0.382677,0.0838583 0.200788,0 0.400394,-0.100394 0.6,-0.3l6.20079 -7.6004c0.15,-0.199606 0.249213,-0.416929 0.265748,-0.649607 0.0165354,-0.233858 -0.0661418,-0.45 -0.265748,-0.650788 -2.0504,-1.91575 -4.31693,-3.56575 -6.78426,-4.96654 -2.46614,-1.41614 -5.19922,-2.49921 -8.19922,-3.26575 -2.98347,-0.767717 -6.3,-1.15039 -9.91654,-1.16693 -5.36693,0.0165354 -10.2331,0.86693 -14.5996,2.56654 -4.38426,1.68307 -8.13426,4.09961 -11.2677,7.24961 -3.15,3.13347 -5.56654,6.88347 -7.26615,11.2335 -1.68307,4.35 -2.55,9.19961 -2.56654,14.55 0.0165354,5.36693 0.833859,10.2331 2.46614,14.5831 1.61693,4.36654 3.93426,8.11654 6.96733,11.2335 3.01654,3.13347 6.61654,5.55 10.8165,7.23308 4.2,1.68307 8.88308,2.53347 14.0492,2.55 5.41654,0.0165354 10.1339,-0.833859 14.1508,-2.51693 3.99922,-1.69961 7.33229,-4.14922 9.96615,-7.36654 2.6504,-3.19961 4.65,-7.09961 5.98347,-11.6669 1.33347,-4.56615 2.03268,-9.71576 2.1,-15.4488 0.0496063,-0.317717 -0.0330709,-0.583465 -0.233858,-0.833859 -0.199606,-0.233858 -0.516142,-0.349607 -0.966142,-0.366142l-29.2004 0c-0.3,0 -0.549213,0.0992127 -0.732284,0.265748 -0.167717,0.184252 -0.266929,0.433465 -0.266929,0.733465l0 8.00079c0,0.3 0.0992127,0.532678 0.266929,0.682678 0.183071,0.166536 0.432284,0.266929 0.732284,0.316536l18.3 0zm88.1316 -41.1c0,-0.3 -0.100394,-0.549213 -0.266929,-0.732284 -0.166536,-0.167717 -0.383859,-0.266929 -0.633071,-0.266929l-10.1008 0c-0.3,0 -0.549213,0.0992127 -0.715749,0.266929 -0.184252,0.183071 -0.283465,0.432284 -0.283465,0.732284l0.0992127 67.5001c0,0.250394 0.0838583,0.466536 0.233858,0.633071 0.15,0.166536 0.366142,0.266929 0.666142,0.266929l10.1008 0c0.3,0 0.516142,-0.100394 0.666142,-0.266929 0.15,-0.166536 0.233858,-0.382677 0.233858,-0.633071l0 -67.5001zm113.929 -0.999213c-0.3,0 -0.549213,0.0992127 -0.715749,0.266929 -0.184252,0.183071 -0.283465,0.432284 -0.283465,0.732284l0 48.7004 -31.2 -49.0004c-0.133465,-0.199606 -0.283465,-0.366142 -0.466536,-0.499607 -0.166536,-0.133465 -0.45,-0.199606 -0.833859,-0.199606 -1.11614,0 -2.36693,0 -3.73347,0 -1.38307,0 -2.74961,0 -4.13268,0 -1.36654,0 -2.61732,0 -3.73347,0 -0.3,0 -0.550394,0.0992127 -0.71693,0.266929 -0.183071,0.183071 -0.283465,0.432284 -0.283465,0.732284l0 67.3997c0,0.3 0.100394,0.550394 0.283465,0.71693 0.166536,0.183071 0.416929,0.283465 0.71693,0.283465l10.0004 0c0.3,0 0.549213,-0.100394 0.715749,-0.283465 0.184252,-0.166536 0.283465,-0.416929 0.283465,-0.71693l0 -48.7996 31.3996 49.2c0.100394,0.15 0.250394,0.3 0.433465,0.416929 0.200788,0.116929 0.416929,0.183071 0.667323,0.183071l11.5996 0c0.3,0 0.550394,-0.100394 0.733465,-0.283465 0.166536,-0.166536 0.266929,-0.416929 0.266929,-0.71693l0 -67.3997c0,-0.3 -0.100394,-0.549213 -0.266929,-0.732284 -0.183071,-0.167717 -0.433465,-0.266929 -0.733465,-0.266929l-10.0004 0zm90.6308 39.6l22.9996 0c0.249213,0 0.466536,-0.100394 0.633071,-0.283465 0.166536,-0.166536 0.266929,-0.416929 0.266929,-0.71693l0 -9.19961c0,-0.3 -0.100394,-0.550394 -0.283465,-0.733465 -0.166536,-0.166536 -0.416929,-0.266929 -0.71693,-0.266929l-22.8992 0 0 -16.9996 27.6992 0c0.3,0 0.550394,-0.100394 0.71693,-0.283465 0.183071,-0.166536 0.283465,-0.416929 0.283465,-0.71693l0 -9.4004c0,-0.3 -0.100394,-0.549213 -0.283465,-0.732284 -0.166536,-0.167717 -0.416929,-0.266929 -0.71693,-0.266929l-38.7 0c-0.249213,0 -0.466536,0.0992127 -0.633071,0.266929 -0.166536,0.183071 -0.266929,0.432284 -0.266929,0.732284l-0.0992127 67.3997c0,0.3 0.0992127,0.550394 0.283465,0.71693 0.166536,0.183071 0.415748,0.283465 0.715749,0.283465l39.7004 0c0.3,0 0.516142,-0.100394 0.666142,-0.266929 0.15,-0.166536 0.233858,-0.382677 0.233858,-0.633071l0 -9.49961c0,-0.3 -0.100394,-0.550394 -0.266929,-0.71693 -0.166536,-0.166536 -0.383859,-0.233858 -0.633071,-0.183071l-28.6996 0 0 -18.4996zm105.73 0l22.9996 0c0.249213,0 0.466536,-0.100394 0.633071,-0.283465 0.166536,-0.166536 0.266929,-0.416929 0.266929,-0.71693l0 -9.19961c0,-0.3 -0.100394,-0.550394 -0.283465,-0.733465 -0.166536,-0.166536 -0.416929,-0.266929 -0.71693,-0.266929l-22.8992 0 0 -16.9996 27.6992 0c0.3,0 0.550394,-0.100394 0.71693,-0.283465 0.183071,-0.166536 0.283465,-0.416929 0.283465,-0.71693l0 -9.4004c0,-0.3 -0.100394,-0.549213 -0.283465,-0.732284 -0.166536,-0.167717 -0.416929,-0.266929 -0.71693,-0.266929l-38.7 0c-0.249213,0 -0.466536,0.0992127 -0.633071,0.266929 -0.166536,0.183071 -0.266929,0.432284 -0.266929,0.732284l-0.0992127 67.3997c0,0.3 0.0992127,0.550394 0.283465,0.71693 0.166536,0.183071 0.415748,0.283465 0.715749,0.283465l39.7004 0c0.3,0 0.516142,-0.100394 0.666142,-0.266929 0.15,-0.166536 0.233858,-0.382677 0.233858,-0.633071l0 -9.49961c0,-0.3 -0.100394,-0.550394 -0.266929,-0.71693 -0.166536,-0.166536 -0.383859,-0.233858 -0.633071,-0.183071l-28.6996 0 0 -18.4996zm114.33 2.89961l15.3992 26.4c0.100394,0.15 0.250394,0.265748 0.433465,0.366142 0.166536,0.0838583 0.367323,0.133465 0.56693,0.133465l11.2996 0c0.45,0 0.733465,-0.100394 0.833859,-0.3 0.116929,-0.199606 0.0661418,-0.499607 -0.133465,-0.900001l-16.6004 -26.7c3.28347,-0.816142 6.06733,-2.16614 8.38347,-4.05 2.30079,-1.86614 4.08307,-4.18347 5.30079,-6.94961 1.23307,-2.74961 1.86614,-5.85 1.91575,-9.30001 -0.0330709,-3.13347 -0.549213,-6 -1.56614,-8.58308 -1.01693,-2.58307 -2.48386,-4.81654 -4.39961,-6.7004 -1.93347,-1.88268 -4.25079,-3.33307 -7.0004,-4.36654 -2.73307,-1.01693 -5.85,-1.53307 -9.33308,-1.54961 -4.10079,0 -8.2004,0 -12.3165,0 -4.10079,0 -8.23347,0 -12.3839,0 -0.249213,0 -0.466536,0.0992127 -0.633071,0.266929 -0.166536,0.183071 -0.266929,0.432284 -0.266929,0.732284l0 67.3997c0,0.3 0.100394,0.550394 0.283465,0.71693 0.166536,0.183071 0.416929,0.283465 0.71693,0.283465l10.0004 0c0.3,0 0.549213,-0.100394 0.715749,-0.283465 0.184252,-0.166536 0.283465,-0.416929 0.283465,-0.71693l0 -25.8992c0.883465,0 2.03386,0 3.41693,0 1.39961,0 3.1004,0 5.08347,0zm5.29961 -31.2c1.28386,0 2.53347,0.199606 3.73347,0.583465 1.2,0.400394 2.26654,1.01693 3.23386,1.83307 0.949607,0.817323 1.71614,1.84961 2.26654,3.1004 0.565748,1.26614 0.849213,2.76614 0.865749,4.48347 -0.0165354,1.71614 -0.3,3.19961 -0.865749,4.43268 -0.583465,1.25079 -1.35,2.26654 -2.30079,3.04961 -0.966142,0.800788 -2.04921,1.38425 -3.24922,1.7504 -1.18347,0.383859 -2.41654,0.56693 -3.68386,0.56693l-13.8 0 0 -19.8 13.8 0zm97.6312 -10.3004c0,-0.3 -0.100394,-0.549213 -0.266929,-0.732284 -0.166536,-0.167717 -0.383859,-0.266929 -0.633071,-0.266929l-10.1008 0c-0.3,0 -0.549213,0.0992127 -0.715749,0.266929 -0.184252,0.183071 -0.283465,0.432284 -0.283465,0.732284l0.0992127 67.5001c0,0.250394 0.0838583,0.466536 0.233858,0.633071 0.15,0.166536 0.366142,0.266929 0.666142,0.266929l10.1008 0c0.3,0 0.516142,-0.100394 0.666142,-0.266929 0.15,-0.166536 0.233858,-0.382677 0.233858,-0.633071l0 -67.5001zm113.929 -0.999213c-0.3,0 -0.549213,0.0992127 -0.715749,0.266929 -0.184252,0.183071 -0.283465,0.432284 -0.283465,0.732284l0 48.7004 -31.2 -49.0004c-0.133465,-0.199606 -0.283465,-0.366142 -0.466536,-0.499607 -0.166536,-0.133465 -0.45,-0.199606 -0.833859,-0.199606 -1.11614,0 -2.36693,0 -3.73347,0 -1.38307,0 -2.74961,0 -4.13268,0 -1.36654,0 -2.61732,0 -3.73347,0 -0.3,0 -0.550394,0.0992127 -0.71693,0.266929 -0.183071,0.183071 -0.283465,0.432284 -0.283465,0.732284l0 67.3997c0,0.3 0.100394,0.550394 0.283465,0.71693 0.166536,0.183071 0.416929,0.283465 0.71693,0.283465l10.0004 0c0.3,0 0.549213,-0.100394 0.715749,-0.283465 0.184252,-0.166536 0.283465,-0.416929 0.283465,-0.71693l0 -48.7996 31.3996 49.2c0.100394,0.15 0.250394,0.3 0.433465,0.416929 0.200788,0.116929 0.416929,0.183071 0.667323,0.183071l11.5996 0c0.3,0 0.550394,-0.100394 0.733465,-0.283465 0.166536,-0.166536 0.266929,-0.416929 0.266929,-0.71693l0 -67.3997c0,-0.3 -0.100394,-0.549213 -0.266929,-0.732284 -0.183071,-0.167717 -0.433465,-0.266929 -0.733465,-0.266929l-10.0004 0zm129.33 42.0992c-1.05,5.36693 -3.26575,9.41694 -6.63308,12.1665 -3.36614,2.75079 -7.86615,4.11733 -13.4669,4.13386 -3.33307,-0.0165354 -6.36615,-0.583465 -9.09922,-1.70079 -2.71654,-1.13268 -5.06693,-2.73307 -7.03347,-4.81654 -1.96654,-2.1 -3.48307,-4.58268 -4.54961,-7.48347 -1.06654,-2.89961 -1.60039,-6.13229 -1.61693,-9.69922 0.0165354,-3.56693 0.583465,-6.79961 1.69961,-9.7004 1.13386,-2.89961 2.73307,-5.38347 4.81654,-7.48347 2.1,-2.08229 4.58386,-3.68268 7.48347,-4.81654 2.89961,-1.11614 6.13347,-1.68307 9.7004,-1.69961 1.99961,0.0165354 3.9,0.216142 5.66575,0.616536 1.78347,0.400394 3.41693,0.916536 4.9004,1.56732 1.5,0.649607 2.81693,1.33228 3.96733,2.08229 1.14921,0.733465 2.11654,1.45039 2.86654,2.13425 0.0992127,0.0992127 0.199606,0.166536 0.316536,0.216142 0.0992127,0.0496063 0.232677,0.0838583 0.382677,0.0838583 0.200788,0 0.400394,-0.100394 0.6,-0.3l6.20079 -7.6004c0.15,-0.199606 0.249213,-0.416929 0.265748,-0.649607 0.0165354,-0.233858 -0.0661418,-0.45 -0.265748,-0.650788 -2.0504,-1.91575 -4.31693,-3.56575 -6.78426,-4.96654 -2.46614,-1.41614 -5.19922,-2.49921 -8.19922,-3.26575 -2.98347,-0.767717 -6.3,-1.15039 -9.91654,-1.16693 -5.36693,0.0165354 -10.2331,0.86693 -14.5996,2.56654 -4.38426,1.68307 -8.13426,4.09961 -11.2677,7.24961 -3.15,3.13347 -5.56654,6.88347 -7.26615,11.2335 -1.68307,4.35 -2.55,9.19961 -2.56654,14.55 0.0165354,5.36693 0.833859,10.2331 2.46614,14.5831 1.61693,4.36654 3.93426,8.11654 6.96733,11.2335 3.01654,3.13347 6.61654,5.55 10.8165,7.23308 4.2,1.68307 8.88308,2.53347 14.0492,2.55 5.41654,0.0165354 10.1339,-0.833859 14.1508,-2.51693 3.99922,-1.69961 7.33229,-4.14922 9.96615,-7.36654 2.6504,-3.19961 4.65,-7.09961 5.98347,-11.6669 1.33347,-4.56615 2.03268,-9.71576 2.1,-15.4488 0.0496063,-0.317717 -0.0330709,-0.583465 -0.233858,-0.833859 -0.199606,-0.233858 -0.516142,-0.349607 -0.966142,-0.366142l-29.2004 0c-0.3,0 -0.549213,0.0992127 -0.732284,0.265748 -0.167717,0.184252 -0.266929,0.433465 -0.266929,0.733465l0 8.00079c0,0.3 0.0992127,0.532678 0.266929,0.682678 0.183071,0.166536 0.432284,0.266929 0.732284,0.316536l18.3 0z"/>
  <polygon class="fil3" points="-27.4512,-22.7929 2041.67,-22.7929 2041.67,839.336 -27.4512,839.336 "/>
 </g>
</svg>
