<?xml version="1.0" encoding="UTF-8"?>
<!DOCTYPE svg PUBLIC "-//W3C//DTD SVG 1.1//EN" "http://www.w3.org/Graphics/SVG/1.1/DTD/svg11.dtd">
<!-- Creator: CorelDRAW -->
<svg xmlns="http://www.w3.org/2000/svg" xml:space="preserve" width="2000px" height="800px" style="shape-rendering:geometricPrecision; text-rendering:geometricPrecision; image-rendering:optimizeQuality; fill-rule:evenodd; clip-rule:evenodd"
viewBox="0 0 2000 799.999"
 xmlns:xlink="http://www.w3.org/1999/xlink"
 version="1.1">
 <defs>
  <style type="text/css">
   <![CDATA[
    .fil3 {fill:none;fill-rule:nonzero}
    .fil1 {fill:white}
    .fil0 {fill:#00C251;fill-rule:nonzero}
    .fil2 {fill:white;fill-rule:nonzero}
   ]]>
  </style>
 </defs>
 <g id="Layer_x0020_1">
  <metadata id="CorelCorpID_0Corel-Layer"/>
  <g id="_1965437616304">
   <path id="_702247376" class="fil0" d="M292.298 602.788l21.0673 12.0284 -0.269292 57.4973 -20.798 -11.8429 0 -57.6815 0 -0.0011811zm29.8477 12.0402l83.4154 -48.267 0.0992127 0 0.558662 -0.323622 0 0.178347 132.281 -76.5438 0.0944883 0 5.43426 -3.13701 0 57.9036 -113.286 65.4012 0.0248032 0.0437008 -106.701 61.5756 -2.19685 1.60039 0.274016 -58.4327 0.0011811 0.0011811zm-180.737 -41.0233l-50.4178 -29.1095 0 -256.308 50.4178 29.0445 0 198.291 0 58.0831 0 -0.0011811zm-46.0276 -293.014l108.898 -62.8701 -0.0248032 -0.0413386 12.9827 -7.4941 50.0953 29.1508 -37.8697 21.8669 -0.0992127 0 -83.7284 48.339 -50.2548 -28.9512 0.0011811 0zm172.048 -99.3887l50.0811 -28.9146 113.261 65.3918 -0.0248032 0.0413386 108.892 62.8689 -50.1083 29.0351 -83.8701 -48.4205 -0.0992127 0 -138.132 -80.0009 0.0011811 -0.0011811zm276.601 107.004l0 140.626 -50.4154 29.0268 0 -140.438 50.4154 -29.2158 0 0.0011811z"/>
   <path id="_702246944" class="fil1" d="M313.912 498.106l-71.8524 -41.0197 0 -81.6709 -50.4154 -29.0445 0 198.357 0 58.0784 15.5386 8.97166 -0.119291 0.204331 0.0968505 0 27.6071 15.724 7.29213 4.20945 0 -0.056693 0 -57.756 0 -59.2619 71.5819 40.7622 0.270473 -57.4985 0 0.0011811zm-67.4611 -130.288l70.9819 -40.9831 71.1201 41.504 50.1615 -29.0693 -121.226 -70.5461 -121.39 70.0867 50.3528 29.0067 0 0.0011811zm146.471 8.15079l0 82.0524 -70.2319 40.2036 -0.272835 58.2343 20.302 -11.374 0 -0.287008 63.4997 -36.3485 0 -0.0779528 37.1174 -21.3697 0 -140.249 -50.4154 29.2158 0.0011811 0z"/>
  </g>
  <path class="fil2" d="M731.503 358.689c4.80237,0 8.9882,-0.615355 12.5587,-1.81536 3.56929,-1.20118 6.55394,-2.91969 8.92324,-5.15906 2.36929,-2.24055 4.12087,-4.96654 5.28898,-8.17796 1.16811,-3.2126 1.75158,-6.78308 1.75158,-10.7421 0,-3.76418 -0.582284,-7.17166 -1.75158,-10.2224 -1.16811,-3.05079 -2.91969,-5.64685 -5.25709,-7.7882 -2.33622,-2.14252 -5.2878,-3.79725 -8.85827,-4.93229 -3.56929,-1.13622 -7.7882,-1.68898 -12.6555,-1.68898l-19.5685 0 -0.0496063 50.5264 19.6181 0zm0 -70.7741c9.41103,0 17.5547,1.10433 24.4358,3.30945 6.87875,2.2063 12.5575,5.29016 17.0362,9.24804 4.47874,3.96024 7.82008,8.69764 9.99568,14.2146 2.17323,5.51693 3.24331,11.5536 3.24331,18.1075 0,6.81497 -1.13622,13.0441 -3.40748,18.724 -2.27126,5.67874 -5.67756,10.5791 -10.2224,14.6681 -4.54252,4.0878 -10.2224,7.26851 -17.0693,9.53977 -6.84686,2.27244 -14.8618,3.40748 -24.013,3.40748l-19.5685 0 0 49.5532 -26.1886 0 0 -140.772 45.7571 0 0.0011811 0zm694.47 21.5138l-42.4453 0 0 119.257 -26.1886 0 0 -119.257 -42.4441 0 0 -21.5138 111.079 0 0 21.5138 -0.0011811 0zm-553.976 45.4642c4.93229,0 9.24804,-0.615355 12.9154,-1.84843 3.66733,-1.23425 6.68386,-2.95394 9.05434,-5.12835 2.36811,-2.17323 4.12087,-4.73741 5.2878,-7.72205 1.16811,-2.98583 1.75276,-6.26339 1.75276,-9.83387 0,-7.13859 -2.33622,-12.6236 -7.04174,-16.4528 -4.70552,-3.82914 -11.9102,-5.74371 -21.5799,-5.74371l-16.7457 0 0 46.7292 16.3559 0 0.0011811 0zm67.3678 73.7942l-23.6551 0c-4.47992,0 -7.7256,-1.75276 -9.73702,-5.25709l-29.5949 -45.0733c-1.10315,-1.68898 -2.30315,-2.88898 -3.63425,-3.60355 -1.32992,-0.713386 -3.30827,-1.07008 -5.90552,-1.07008l-11.1969 0 0 55.0052 -26.1874 0 0 -140.772 42.9331 0c9.54095,0 17.7508,0.973229 24.5977,2.95276 6.84804,1.97953 12.4618,4.7693 16.8425,8.33977 4.38071,3.56929 7.59213,7.82127 9.66969,12.7866 2.07756,4.96418 3.11457,10.4492 3.11457,16.4197 0,4.73741 -0.681497,9.21615 -2.07638,13.435 -1.3937,4.2189 -3.40748,8.04686 -6.03544,11.4874 -2.62914,3.44055 -5.87363,6.45827 -9.73583,9.05316 -3.86221,2.59725 -8.27599,4.64174 -13.2083,6.13465 1.68898,0.973229 3.24567,2.10709 4.67363,3.44055 1.42795,1.32992 2.72599,2.91969 3.8941,4.73622l35.2418 51.9874 0 -0.00236221zm170.769 -70.3867c0,10.3193 -1.68662,19.8603 -5.09528,28.6536 -3.40748,8.7945 -8.24174,16.4209 -14.4732,22.8461 -6.23032,6.42638 -13.7268,11.4224 -22.4882,15.0248 -8.76142,3.60118 -18.4973,5.4189 -29.2063,5.4189 -10.6441,0 -20.3469,-1.81772 -29.1071,-5.4189 -8.76142,-3.60237 -16.2591,-8.59961 -22.5213,-15.0248 -6.26339,-6.42402 -11.1295,-14.0516 -14.5701,-22.8461 -3.44055,-8.79331 -5.16024,-18.3354 -5.16024,-28.6536 0,-10.3205 1.72087,-19.8933 5.16024,-28.6855 3.44055,-8.79568 8.3067,-16.389 14.5701,-22.8142 6.26221,-6.42402 13.7599,-11.4543 22.5213,-15.0567 8.76024,-3.60237 18.4642,-5.38701 29.1071,-5.38701 7.13977,0 13.8567,0.811418 20.152,2.46732 6.2941,1.65354 12.0721,3.99095 17.3291,7.00867 5.25591,3.01654 9.9945,6.68504 14.1815,11.0008 4.18465,4.31575 7.72205,9.15119 10.6441,14.4732 2.91969,5.32205 5.15906,11.0976 6.68386,17.328 1.52599,6.2315 2.27126,12.7866 2.27126,19.6654l0.0011811 0zm-26.7721 0c0,-7.72323 -1.03819,-14.6669 -3.11575,-20.8016 -2.07638,-6.13347 -5.03032,-11.3244 -8.85827,-15.6083 -3.82914,-4.28386 -8.46851,-7.5626 -13.9536,-9.83268 -5.48386,-2.27126 -11.6823,-3.40748 -18.5622,-3.40748 -6.87875,0 -13.0465,1.13622 -18.5303,3.40748 -5.48268,2.27008 -10.1551,5.54882 -14.0173,9.83268 -3.86221,4.28386 -6.84686,9.47481 -8.92324,15.6083 -2.07756,6.13465 -3.11575,13.0784 -3.11575,20.8016 0,7.72323 1.03819,14.6362 3.11575,20.7685 2.07638,6.13347 5.06103,11.3244 8.92324,15.5752 3.86221,4.25079 8.53465,7.52953 14.0173,9.8008 5.48386,2.27126 11.6516,3.40748 18.5303,3.40748 6.87993,0 13.0784,-1.13622 18.5622,-3.40748 5.48386,-2.27126 10.1244,-5.55 13.9536,-9.8008 3.82796,-4.25079 6.7819,-9.44292 8.85827,-15.5752 2.07756,-6.13347 3.11575,-13.0453 3.11575,-20.7685zm198.03 0c0,10.3193 -1.71969,19.7953 -5.15906,28.4268 -3.44055,8.63268 -8.27363,16.063 -14.5063,22.2933 -6.22796,6.2315 -13.7256,11.0669 -22.487,14.5063 -8.76142,3.43937 -18.4973,5.15906 -29.2075,5.15906l-53.641 0 0 -140.772 53.641 0c10.7102,0 20.4449,1.72087 29.2075,5.19095 8.76142,3.47362 16.2579,8.30788 22.487,14.5063 6.23268,6.19843 11.0669,13.6299 14.5063,22.2614 3.43937,8.6315 5.15906,18.1063 5.15906,28.4268l0 0.0011811zm-26.8701 0c0,-7.72323 -1.0063,-14.6669 -3.05079,-20.8016 -2.04331,-6.13347 -4.99607,-11.3244 -8.85827,-15.5752 -3.86103,-4.25079 -8.53465,-7.49646 -14.0173,-9.76772 -5.48386,-2.27244 -11.6823,-3.40748 -18.5634,-3.40748l-27.3544 0 0 99.104 27.3544 0c6.88111,0 13.0795,-1.13504 18.5634,-3.4063 5.48268,-2.27126 10.1563,-5.55 14.0173,-9.8008 3.86221,-4.25079 6.81615,-9.44292 8.85827,-15.5752 2.04449,-6.13347 3.05079,-13.0453 3.05079,-20.7697l0 0zm239.419 -49.552l0 39.0378 49.2603 0 0 20.1532 -49.2603 0 0 39.8174 62.4993 0 0 20.9315 -88.7859 0 0 -140.772 88.7859 0 0 20.8335 -62.4993 0 0 -0.0011811zm202.506 86.7402c1.42795,0 2.6941,0.552756 3.79725,1.65473l10.3193 11.1957c-5.71182,7.07481 -12.7205,12.4949 -21.0603,16.2579 -8.33977,3.76418 -18.3662,5.64685 -30.0496,5.64685 -10.4492,0 -19.8272,-1.78701 -28.167,-5.35394 -8.34095,-3.57048 -15.4795,-8.53465 -21.3851,-14.8961 -5.9067,-6.36024 -10.4161,-13.9536 -13.5638,-22.7811 -3.14882,-8.82638 -4.73741,-18.4642 -4.73741,-28.9134 0,-10.5791 1.68662,-20.2807 5.06103,-29.0752 3.37441,-8.7945 8.14489,-16.3559 14.2784,-22.715 6.13347,-6.36142 13.435,-11.3256 21.9366,-14.8642 8.50276,-3.53504 17.9138,-5.2878 28.2331,-5.2878 10.2532,0 19.3725,1.68662 27.3225,5.06103 7.95119,3.37559 14.7012,7.78938 20.2819,13.2402l-8.76142 12.1701c-0.518504,0.778347 -1.16811,1.45984 -1.97835,2.04449 -0.812599,0.584646 -1.94882,0.875198 -3.37559,0.875198 -0.97441,0 -1.97953,-0.291733 -3.01772,-0.843308 -1.03819,-0.552756 -2.17441,-1.23307 -3.4063,-2.04449 -1.23425,-0.811418 -2.66221,-1.68662 -4.28504,-2.66103 -1.62284,-0.973229 -3.50433,-1.8815 -5.64567,-2.6941 -2.14252,-0.810237 -4.60867,-1.49173 -7.43032,-2.04331 -2.82402,-0.552756 -6.10158,-0.811418 -9.80198,-0.811418 -6.29528,0 -12.039,1.10315 -17.263,3.34134 -5.2252,2.23937 -9.73583,5.48386 -13.5012,9.73583 -3.76418,4.25079 -6.68386,9.4441 -8.76024,15.5764 -2.07756,6.13347 -3.11693,13.1421 -3.11693,20.9953 0,7.91812 1.13622,14.961 3.37559,21.1252 2.23937,6.16654 5.25709,11.3587 9.08505,15.5776 3.83032,4.21772 8.34095,7.43268 13.5331,9.66969 5.19213,2.23937 10.774,3.37559 16.7445,3.37559 3.56929,0 6.81378,-0.194882 9.70394,-0.584646 2.88662,-0.389764 5.54882,-1.0063 7.98308,-1.85079 2.43307,-0.842127 4.73741,-1.94646 6.91064,-3.27638 2.17441,-1.3311 4.31693,-2.95276 6.45827,-4.9004 0.648426,-0.583465 1.32992,-1.07008 2.04331,-1.42795 0.715749,-0.357874 1.46102,-0.519685 2.24055,-0.519685l-0.0011811 0.0011811zm173.982 -107.575l0 140.772 -26.2855 0 0 -61.5272 -66.1016 0 0 61.5272 -26.2866 0 0 -140.772 26.2866 0 0 60.554 66.1016 0 0 -60.554 26.2855 0z"/>
  <path class="fil2" d="M697.008 514.559l23.752 0c0.257481,0 0.483071,-0.102756 0.654331,-0.291733 0.17126,-0.172441 0.275197,-0.431103 0.275197,-0.740552l0 -9.50079c0,-0.31063 -0.103937,-0.569292 -0.292914,-0.758268 -0.172441,-0.172441 -0.429922,-0.275197 -0.740552,-0.275197l-23.6492 0 0 -17.5571 28.6063 0c0.309449,0 0.568111,-0.102756 0.740552,-0.291733 0.188977,-0.172441 0.292914,-0.431103 0.292914,-0.740552l0 -9.70867c0,-0.31063 -0.103937,-0.568111 -0.292914,-0.757087 -0.172441,-0.173622 -0.431103,-0.275197 -0.740552,-0.275197l-39.9685 0c-0.257481,0 -0.48189,0.101575 -0.65315,0.275197 -0.172441,0.188977 -0.275197,0.446457 -0.275197,0.757087l-0.102756 69.6071c0,0.309449 0.102756,0.568111 0.292914,0.740552 0.172441,0.188977 0.429922,0.291733 0.739371,0.291733l41.0008 0c0.31063,0 0.533859,-0.102756 0.688583,-0.275197 0.154725,-0.172441 0.240945,-0.394488 0.240945,-0.65315l0 -9.81143c0,-0.309449 -0.103937,-0.568111 -0.275197,-0.740552 -0.172441,-0.17126 -0.396851,-0.240945 -0.654331,-0.188977l-29.6386 0 0 -19.1055zm144.512 -40.8969c-0.31063,0 -0.568111,0.101575 -0.739371,0.275197 -0.191339,0.188977 -0.292914,0.446457 -0.292914,0.757087l0 50.2949 -32.2217 -50.6056c-0.138189,-0.205512 -0.292914,-0.377953 -0.48189,-0.514961 -0.172441,-0.138189 -0.465355,-0.205512 -0.861024,-0.205512 -1.15276,0 -2.44488,0 -3.8563,0 -1.42795,0 -2.83937,0 -4.26733,0 -1.41142,0 -2.70236,0 -3.85512,0 -0.31063,0 -0.568111,0.101575 -0.740552,0.275197 -0.190158,0.188977 -0.292914,0.446457 -0.292914,0.757087l0 69.6071c0,0.309449 0.102756,0.568111 0.292914,0.739371 0.172441,0.190158 0.429922,0.292914 0.740552,0.292914l10.3276 0c0.309449,0 0.56693,-0.102756 0.739371,-0.292914 0.190158,-0.17126 0.292914,-0.429922 0.292914,-0.739371l0 -50.3977 32.4272 50.8099c0.103937,0.155906 0.258662,0.31063 0.447638,0.431103 0.207874,0.120473 0.431103,0.188977 0.689764,0.188977l11.9787 0c0.31063,0 0.569292,-0.102756 0.758268,-0.292914 0.172441,-0.17126 0.275197,-0.429922 0.275197,-0.739371l0 -69.6071c0,-0.31063 -0.102756,-0.568111 -0.275197,-0.757087 -0.188977,-0.173622 -0.447638,-0.275197 -0.758268,-0.275197l-10.3264 0 -0.0011811 -0.0011811zm133.565 43.4776c-1.08307,5.54292 -3.37205,9.7252 -6.84922,12.5658 -3.47717,2.83937 -8.12481,4.25197 -13.9087,4.26969 -3.44173,-0.0177165 -6.57402,-0.603544 -9.39804,-1.75748 -2.80512,-1.16929 -5.23229,-2.82166 -7.26379,-4.97363 -2.0315,-2.16851 -3.59764,-4.73268 -4.69843,-7.72796 -1.10079,-2.9941 -1.65236,-6.33308 -1.6689,-10.0169 0.0165354,-3.68386 0.602363,-7.02166 1.75512,-10.0181 1.17165,-2.9941 2.82284,-5.55945 4.97363,-7.72796 2.16969,-2.15079 4.73386,-3.80315 7.72796,-4.97363 2.99528,-1.15276 6.33426,-1.73858 10.0193,-1.7563 2.06575,0.0177165 4.02756,0.223229 5.85119,0.637796 1.84134,0.413386 3.52914,0.946064 5.06103,1.61811 1.54843,0.670867 2.90906,1.37599 4.09725,2.15079 1.18701,0.758268 2.18622,1.49882 2.95984,2.20394 0.102756,0.102756 0.205512,0.172441 0.327166,0.223229 0.102756,0.0519685 0.239764,0.0874016 0.39567,0.0874016 0.206693,0 0.412205,-0.103937 0.618898,-0.31063l6.40512 -7.84961c0.154725,-0.205512 0.256299,-0.429922 0.274016,-0.669686 0.0177165,-0.242126 -0.0673229,-0.465355 -0.274016,-0.673229 -2.11772,-1.97835 -4.45866,-3.68268 -7.00749,-5.12835 -2.54646,-1.46339 -5.3693,-2.58189 -8.46733,-3.37323 -3.0815,-0.79252 -6.5067,-1.18819 -10.2413,-1.20473 -5.54292,0.0165354 -10.5685,0.895276 -15.078,2.6504 -4.52835,1.73858 -8.40001,4.23426 -11.6362,7.48701 -3.25276,3.2374 -5.74843,7.11024 -7.50355,11.602 -1.73858,4.49292 -2.63386,9.50079 -2.65158,15.0272 0.0177165,5.54292 0.861024,10.5685 2.54646,15.0602 1.67008,4.50945 4.063,8.38229 7.19528,11.602 3.11575,3.23622 6.83386,5.73189 11.1709,7.4693 4.33701,1.73858 9.17363,2.61732 14.5087,2.63386 5.59371,0.0177165 10.4669,-0.861024 14.615,-2.59961 4.13032,-1.75512 7.57205,-4.28504 10.2921,-7.60749 2.73662,-3.30355 4.80237,-7.33111 6.17953,-12.0484 1.37599,-4.71496 2.09882,-10.0335 2.16851,-15.9543 0.0519685,-0.328347 -0.034252,-0.602363 -0.240945,-0.861024 -0.205512,-0.240945 -0.532678,-0.361418 -0.998032,-0.377953l-30.1571 0c-0.309449,0 -0.56693,0.102756 -0.757087,0.274016 -0.172441,0.191339 -0.275197,0.447638 -0.275197,0.758268l0 8.263c0,0.309449 0.102756,0.550394 0.275197,0.705119 0.190158,0.172441 0.447638,0.275197 0.757087,0.327166l18.9 0 0 -0.00590552zm91.0182 -42.4453c0,-0.31063 -0.102756,-0.568111 -0.275197,-0.757087 -0.172441,-0.173622 -0.39567,-0.275197 -0.65315,-0.275197l-10.4327 0c-0.309449,0 -0.56693,0.101575 -0.739371,0.275197 -0.190158,0.188977 -0.292914,0.446457 -0.292914,0.757087l0.102756 69.7099c0,0.258662 0.0874016,0.48189 0.240945,0.65315 0.154725,0.172441 0.377953,0.276378 0.688583,0.276378l10.4315 0c0.309449,0 0.532678,-0.103937 0.687402,-0.276378 0.155906,-0.17126 0.240945,-0.394488 0.240945,-0.65315l0 -69.7099 0.0011811 0zm117.662 -1.03228c-0.31063,0 -0.568111,0.101575 -0.739371,0.275197 -0.191339,0.188977 -0.292914,0.446457 -0.292914,0.757087l0 50.2949 -32.2217 -50.6056c-0.138189,-0.205512 -0.292914,-0.377953 -0.48189,-0.514961 -0.172441,-0.138189 -0.465355,-0.205512 -0.861024,-0.205512 -1.15276,0 -2.44488,0 -3.8563,0 -1.42795,0 -2.83937,0 -4.26733,0 -1.41142,0 -2.70236,0 -3.85512,0 -0.31063,0 -0.568111,0.101575 -0.740552,0.275197 -0.190158,0.188977 -0.292914,0.446457 -0.292914,0.757087l0 69.6071c0,0.309449 0.102756,0.568111 0.292914,0.739371 0.172441,0.190158 0.429922,0.292914 0.740552,0.292914l10.3276 0c0.309449,0 0.56693,-0.102756 0.739371,-0.292914 0.190158,-0.17126 0.292914,-0.429922 0.292914,-0.739371l0 -50.3977 32.4272 50.8099c0.103937,0.155906 0.258662,0.31063 0.447638,0.431103 0.207874,0.120473 0.431103,0.188977 0.689764,0.188977l11.9787 0c0.31063,0 0.569292,-0.102756 0.758268,-0.292914 0.172441,-0.17126 0.275197,-0.429922 0.275197,-0.739371l0 -69.6071c0,-0.31063 -0.102756,-0.568111 -0.275197,-0.757087 -0.188977,-0.173622 -0.447638,-0.275197 -0.758268,-0.275197l-10.3264 0 -0.0011811 -0.0011811zm93.5989 40.8969l23.7532 0c0.256299,0 0.48189,-0.102756 0.65315,-0.291733 0.172441,-0.172441 0.275197,-0.431103 0.275197,-0.740552l0 -9.50079c0,-0.31063 -0.102756,-0.569292 -0.292914,-0.758268 -0.172441,-0.172441 -0.429922,-0.275197 -0.740552,-0.275197l-23.6492 0 0 -17.5571 28.6063 0c0.309449,0 0.568111,-0.102756 0.740552,-0.291733 0.188977,-0.172441 0.292914,-0.431103 0.292914,-0.740552l0 -9.70867c0,-0.31063 -0.103937,-0.568111 -0.292914,-0.757087 -0.172441,-0.173622 -0.431103,-0.275197 -0.740552,-0.275197l-39.9674 0c-0.257481,0 -0.483071,0.101575 -0.654331,0.275197 -0.172441,0.188977 -0.275197,0.446457 -0.275197,0.757087l-0.102756 69.6071c0,0.309449 0.102756,0.568111 0.292914,0.740552 0.172441,0.188977 0.429922,0.291733 0.739371,0.291733l41.002 0c0.309449,0 0.532678,-0.102756 0.687402,-0.275197 0.154725,-0.172441 0.240945,-0.394488 0.240945,-0.65315l0 -9.81143c0,-0.309449 -0.102756,-0.568111 -0.275197,-0.740552 -0.172441,-0.17126 -0.396851,-0.240945 -0.65315,-0.188977l-29.6398 0 0 -19.1055zm109.192 0l23.7532 0c0.257481,0 0.48189,-0.102756 0.65315,-0.291733 0.172441,-0.172441 0.275197,-0.431103 0.275197,-0.740552l0 -9.50079c0,-0.31063 -0.102756,-0.569292 -0.291733,-0.758268 -0.172441,-0.172441 -0.431103,-0.275197 -0.740552,-0.275197l-23.6504 0 0 -17.5571 28.6063 0c0.31063,0 0.568111,-0.102756 0.740552,-0.291733 0.190158,-0.172441 0.292914,-0.431103 0.292914,-0.740552l0 -9.70867c0,-0.31063 -0.102756,-0.568111 -0.292914,-0.757087 -0.172441,-0.173622 -0.429922,-0.275197 -0.740552,-0.275197l-39.9674 0c-0.257481,0 -0.48189,0.101575 -0.65315,0.275197 -0.172441,0.188977 -0.276378,0.446457 -0.276378,0.757087l-0.101575 69.6071c0,0.309449 0.101575,0.568111 0.292914,0.740552 0.17126,0.188977 0.42874,0.291733 0.739371,0.291733l41.0008 0c0.309449,0 0.532678,-0.102756 0.687402,-0.275197 0.154725,-0.172441 0.240945,-0.394488 0.240945,-0.65315l0 -9.81143c0,-0.309449 -0.102756,-0.568111 -0.275197,-0.740552 -0.172441,-0.17126 -0.39567,-0.240945 -0.65315,-0.188977l-29.6398 0 0 -19.1055zm118.075 2.99528l15.9024 27.2646c0.103937,0.154725 0.258662,0.274016 0.447638,0.377953 0.172441,0.0874016 0.380315,0.137008 0.585827,0.137008l11.6693 0c0.465355,0 0.758268,-0.102756 0.861024,-0.309449 0.121654,-0.205512 0.068504,-0.516142 -0.137008,-0.929528l-17.1437 -27.5752c3.39095,-0.843308 6.26575,-2.23701 8.65749,-4.18229 2.37638,-1.92756 4.21772,-4.32048 5.47441,-7.17756 1.27323,-2.83937 1.92638,-6.04134 1.97835,-9.60355 -0.034252,-3.2374 -0.56693,-6.19725 -1.61811,-8.86418 -1.05,-2.66693 -2.56418,-4.97363 -4.54252,-6.92008 -1.99725,-1.9441 -4.39016,-3.44173 -7.23071,-4.50945 -2.82166,-1.05118 -6.04134,-1.58386 -9.6378,-1.60039 -4.23544,0 -8.46851,0 -12.7205,0 -4.23544,0 -8.50276,0 -12.789,0 -0.257481,0 -0.48189,0.101575 -0.65315,0.275197 -0.172441,0.188977 -0.276378,0.446457 -0.276378,0.757087l0 69.6071c0,0.309449 0.103937,0.568111 0.292914,0.740552 0.172441,0.188977 0.431103,0.291733 0.740552,0.291733l10.3276 0c0.31063,0 0.56693,-0.102756 0.739371,-0.291733 0.190158,-0.172441 0.292914,-0.431103 0.292914,-0.740552l0 -26.7473c0.912993,0 2.10118,0 3.52914,0 1.44567,0 3.20197,0 5.25,0l0 0zm5.47323 -32.2229c1.3252,0 2.61614,0.205512 3.85512,0.602363 1.23898,0.413386 2.34095,1.05118 3.34016,1.89331 0.980316,0.844489 1.77284,1.91103 2.34095,3.20197 0.584646,1.30866 0.87756,2.85709 0.894095,4.63111 -0.0165354,1.77284 -0.309449,3.30473 -0.894095,4.57796 -0.603544,1.29095 -1.3937,2.34095 -2.37638,3.14882 -0.998032,0.826772 -2.11654,1.42913 -3.3567,1.80827 -1.22244,0.39567 -2.49567,0.585827 -3.80433,0.585827l-14.2524 0 0 -20.4484 14.2524 0 0.0011811 -0.0011811zm100.828 -10.637c0,-0.31063 -0.102756,-0.568111 -0.275197,-0.757087 -0.172441,-0.173622 -0.396851,-0.275197 -0.654331,-0.275197l-10.4315 0c-0.309449,0 -0.56693,0.101575 -0.739371,0.275197 -0.190158,0.188977 -0.292914,0.446457 -0.292914,0.757087l0.102756 69.7099c0,0.258662 0.0874016,0.48189 0.240945,0.65315 0.154725,0.172441 0.377953,0.276378 0.687402,0.276378l10.4327 0c0.309449,0 0.532678,-0.103937 0.687402,-0.276378 0.154725,-0.17126 0.240945,-0.394488 0.240945,-0.65315l0 -69.7099 0.0011811 0zm117.66 -1.03228c-0.309449,0 -0.56693,0.101575 -0.739371,0.275197 -0.190158,0.188977 -0.291733,0.446457 -0.291733,0.757087l0 50.2949 -32.2217 -50.6056c-0.138189,-0.205512 -0.292914,-0.377953 -0.483071,-0.514961 -0.17126,-0.138189 -0.464174,-0.205512 -0.861024,-0.205512 -1.15276,0 -2.4437,0 -3.85512,0 -1.42795,0 -2.83937,0 -4.26733,0 -1.41142,0 -2.70355,0 -3.8563,0 -0.309449,0 -0.568111,0.101575 -0.739371,0.275197 -0.190158,0.188977 -0.292914,0.446457 -0.292914,0.757087l0 69.6071c0,0.309449 0.102756,0.568111 0.292914,0.739371 0.17126,0.190158 0.429922,0.292914 0.739371,0.292914l10.3276 0c0.31063,0 0.568111,-0.102756 0.740552,-0.292914 0.190158,-0.17126 0.291733,-0.429922 0.291733,-0.739371l0 -50.3977 32.4284 50.8099c0.103937,0.155906 0.258662,0.31063 0.447638,0.431103 0.207874,0.120473 0.431103,0.188977 0.688583,0.188977l11.9799 0c0.31063,0 0.568111,-0.102756 0.758268,-0.292914 0.172441,-0.17126 0.275197,-0.429922 0.275197,-0.739371l0 -69.6071c0,-0.31063 -0.102756,-0.568111 -0.275197,-0.757087 -0.190158,-0.173622 -0.447638,-0.275197 -0.758268,-0.275197l-10.3276 0 -0.0011811 -0.0011811zm133.565 43.4776c-1.08307,5.54292 -3.37205,9.7252 -6.84922,12.5658 -3.47717,2.83937 -8.12481,4.25197 -13.9087,4.26969 -3.44173,-0.0177165 -6.57402,-0.603544 -9.39804,-1.75748 -2.80512,-1.16929 -5.23229,-2.82166 -7.26379,-4.97363 -2.0315,-2.16851 -3.59764,-4.73268 -4.69843,-7.72796 -1.10079,-2.9941 -1.65354,-6.33308 -1.6689,-10.0169 0.0165354,-3.68386 0.602363,-7.02166 1.75512,-10.0181 1.17165,-2.9941 2.82284,-5.55945 4.97363,-7.72796 2.16969,-2.15079 4.73386,-3.80315 7.72796,-4.97363 2.99528,-1.15276 6.33426,-1.73858 10.0193,-1.7563 2.06575,0.0177165 4.02756,0.223229 5.85119,0.637796 1.84134,0.413386 3.52914,0.946064 5.06103,1.61811 1.54843,0.670867 2.90906,1.37599 4.09725,2.15079 1.18701,0.758268 2.18622,1.49882 2.95984,2.20394 0.102756,0.102756 0.205512,0.172441 0.327166,0.223229 0.102756,0.0519685 0.239764,0.0874016 0.39567,0.0874016 0.206693,0 0.412205,-0.103937 0.618898,-0.31063l6.40512 -7.84961c0.154725,-0.205512 0.256299,-0.429922 0.274016,-0.669686 0.0177165,-0.242126 -0.0673229,-0.465355 -0.274016,-0.673229 -2.11772,-1.97835 -4.45866,-3.68268 -7.00749,-5.12835 -2.54646,-1.46339 -5.3693,-2.58189 -8.46733,-3.37323 -3.0815,-0.79252 -6.5067,-1.18819 -10.2413,-1.20473 -5.54292,0.0165354 -10.5685,0.895276 -15.078,2.6504 -4.52835,1.73858 -8.40001,4.23426 -11.6362,7.48701 -3.25276,3.2374 -5.74843,7.11024 -7.50473,11.602 -1.7374,4.49292 -2.63268,9.50079 -2.6504,15.0272 0.0177165,5.54292 0.861024,10.5685 2.54646,15.0602 1.67008,4.50945 4.063,8.38229 7.19528,11.602 3.11575,3.23622 6.83386,5.73189 11.1709,7.4693 4.33701,1.73858 9.17363,2.61732 14.5087,2.63386 5.59371,0.0177165 10.4669,-0.861024 14.615,-2.59961 4.13032,-1.75512 7.57205,-4.28504 10.2921,-7.60749 2.73662,-3.30355 4.80237,-7.33111 6.17953,-12.0484 1.37599,-4.71496 2.09882,-10.0335 2.16851,-15.9543 0.0519685,-0.328347 -0.034252,-0.602363 -0.240945,-0.861024 -0.205512,-0.240945 -0.532678,-0.361418 -0.998032,-0.377953l-30.1571 0c-0.309449,0 -0.56693,0.102756 -0.757087,0.274016 -0.172441,0.191339 -0.275197,0.447638 -0.275197,0.758268l0 8.263c0,0.309449 0.102756,0.550394 0.275197,0.705119 0.190158,0.172441 0.447638,0.275197 0.757087,0.327166l18.9 0 0 -0.00590552z"/>
  <polygon class="fil3" points="-87.9284,-29.8902 2048.96,-29.8902 2048.96,860.475 -87.9284,860.475 "/>
 </g>
</svg>
